<svg width="1920" height="1080" viewBox="0 0 1920 1080" fill="none" xmlns="http://www.w3.org/2000/svg">
  <defs>
    <linearGradient id="bgGrad" x1="0" y1="0" x2="1920" y2="1080" gradientUnits="userSpaceOnUse">
      <stop stop-color="#1e233f"/>
      <stop offset="1" stop-color="#ffb300"/>
    </linearGradient>
    <pattern id="beerPattern" width="240" height="240" patternUnits="userSpaceOnUse">
      <!-- Hop cone -->
      <g>
        <ellipse cx="60" cy="60" rx="22" ry="32" fill="#A3C93A" stroke="#789c24" stroke-width="3"/>
        <path d="M60 28 L60 92" stroke="#789c24" stroke-width="3"/>
        <path d="M60 38 Q50 60 60 82" stroke="#789c24" stroke-width="2" fill="none"/>
        <path d="M60 38 Q70 60 60 82" stroke="#789c24" stroke-width="2" fill="none"/>
      </g>
      <!-- Beer mug -->
      <g>
        <rect x="140" y="110" width="48" height="60" rx="9" fill="#ffb300" stroke="#e94f37" stroke-width="4"/>
        <ellipse cx="164" cy="110" rx="24" ry="10" fill="#fff" stroke="#e94f37" stroke-width="2"/>
        <rect x="188" y="122" width="12" height="32" rx="6" fill="#fff3" stroke="#e94f37" stroke-width="2"/>
      </g>
      <!-- Wheat ear -->
      <g>
        <rect x="40" y="180" width="8" height="40" rx="4" fill="#ffb300"/>
        <g stroke="#e94f37" stroke-width="2">
          <line x1="44" y1="180" x2="34" y2="170"/>
          <line x1="44" y1="190" x2="34" y2="180"/>
          <line x1="44" y1="200" x2="34" y2="190"/>
          <line x1="44" y1="210" x2="34" y2="200"/>
          <line x1="44" y1="220" x2="34" y2="210"/>
        </g>
        <g stroke="#e94f37" stroke-width="2">
          <line x1="44" y1="180" x2="54" y2="170"/>
          <line x1="44" y1="190" x2="54" y2="180"/>
          <line x1="44" y1="200" x2="54" y2="190"/>
          <line x1="44" y1="210" x2="54" y2="200"/>
          <line x1="44" y1="220" x2="54" y2="210"/>
        </g>
      </g>
      <!-- Bubbles -->
      <circle cx="200" cy="40" r="8" fill="#fff" fill-opacity="0.7"/>
      <circle cx="40" cy="120" r="5" fill="#fff" fill-opacity="0.5"/>
      <circle cx="210" cy="210" r="6" fill="#fff" fill-opacity="0.4"/>
    </pattern>
  </defs>
  <rect width="1920" height="1080" fill="url(#bgGrad)"/>
  <rect width="1920" height="1080" fill="url(#beerPattern)" fill-opacity="0.7"/>
</svg>
