<svg width="1920" height="1080" viewBox="0 0 1920 1080" fill="none" xmlns="http://www.w3.org/2000/svg">
  <defs>
    <linearGradient id="bg" x1="0" y1="0" x2="1920" y2="1080" gradientUnits="userSpaceOnUse">
      <stop stop-color="#1e233f"/>
      <stop offset="1" stop-color="#ffb300"/>
    </linearGradient>
    <radialGradient id="rad1" cx="80%" cy="20%" r="60%" fx="80%" fy="10%" gradientUnits="userSpaceOnUse">
      <stop stop-color="#e94f37" stop-opacity="0.20"/>
      <stop offset="1" stop-color="#ffb300" stop-opacity="0"/>
    </radialGradient>
    <radialGradient id="rad2" cx="30%" cy="80%" r="60%" fx="30%" fy="80%" gradientUnits="userSpaceOnUse">
      <stop stop-color="#ffb300" stop-opacity="0.20"/>
      <stop offset="1" stop-color="#e94f37" stop-opacity="0"/>
    </radialGradient>
    <linearGradient id="shape1" x1="0" y1="0" x2="100%" y2="100%">
      <stop stop-color="#fff" stop-opacity="0.07"/>
      <stop offset="1" stop-color="#fff" stop-opacity="0"/>
    </linearGradient>
    <linearGradient id="shape2" x1="100%" y1="0" x2="0" y2="100%">
      <stop stop-color="#fff" stop-opacity="0.05"/>
      <stop offset="1" stop-color="#fff" stop-opacity="0"/>
    </linearGradient>
  </defs>
  <rect width="1920" height="1080" fill="url(#bg)"/>
  <!-- Modern light shapes, abstract -->
  <ellipse cx="1550" cy="200" rx="420" ry="160" fill="url(#rad1)"/>
  <ellipse cx="600" cy="900" rx="700" ry="200" fill="url(#rad2)"/>
  <!-- Soft white glowing shapes -->
  <ellipse cx="1200" cy="120" rx="200" ry="60" fill="url(#shape1)"/>
  <ellipse cx="400" cy="950" rx="320" ry="80" fill="url(#shape2)"/>
  <!-- Wavy "energy" shape -->
  <path d="M0 700 Q600 900 1920 700 L1920 1080 L0 1080 Z" fill="#fff" fill-opacity="0.07"/>
  <path d="M0 300 Q600 120 1920 400 L1920 0 L0 0 Z" fill="#fff" fill-opacity="0.06"/>
  <!-- Subtle dots pattern for energy -->
  <g opacity="0.08">
    <circle cx="300" cy="200" r="20" fill="#fff"/>
    <circle cx="1700" cy="900" r="18" fill="#fff"/>
    <circle cx="1000" cy="780" r="12" fill="#fff"/>
    <circle cx="1600" cy="350" r="14" fill="#fff"/>
    <circle cx="800" cy="340" r="16" fill="#fff"/>
    <circle cx="1100" cy="980" r="10" fill="#fff"/>
  </g>
</svg>
