<svg width="1920" height="1080" viewBox="0 0 1920 1080" fill="none" xmlns="http://www.w3.org/2000/svg">
  <defs>
    <linearGradient id="bg" x1="0" y1="0" x2="1920" y2="1080" gradientUnits="userSpaceOnUse">
      <stop stop-color="#1e233f"/>
      <stop offset="1" stop-color="#ffb300"/>
    </linearGradient>
    <radialGradient id="blob1" cx="60%" cy="10%" r="60%" fx="60%" fy="10%" gradientUnits="userSpaceOnUse">
      <stop stop-color="#e94f37" stop-opacity="0.90"/>
      <stop offset="1" stop-color="#ffb300" stop-opacity="0"/>
    </radialGradient>
    <radialGradient id="blob2" cx="20%" cy="90%" r="70%" fx="20%" fy="90%" gradientUnits="userSpaceOnUse">
      <stop stop-color="#ffb300" stop-opacity="0.85"/>
      <stop offset="1" stop-color="#e94f37" stop-opacity="0"/>
    </radialGradient>
    <radialGradient id="blob3" cx="90%" cy="60%" r="50%" fx="90%" fy="60%" gradientUnits="userSpaceOnUse">
      <stop stop-color="#ff00b8" stop-opacity="0.7"/>
      <stop offset="1" stop-color="#ffb300" stop-opacity="0"/>
    </radialGradient>
    <linearGradient id="wave1" x1="0" y1="0" x2="1920" y2="200" gradientUnits="userSpaceOnUse">
      <stop stop-color="#fff" stop-opacity="0.06"/>
      <stop offset="1" stop-color="#fff" stop-opacity="0"/>
    </linearGradient>
  </defs>
  <rect width="1920" height="1080" fill="url(#bg)"/>
  <!-- Modern colorful blobs -->
  <ellipse cx="1530" cy="130" rx="440" ry="180" fill="url(#blob1)" opacity="0.8"/>
  <ellipse cx="350" cy="980" rx="520" ry="210" fill="url(#blob2)" opacity="0.8"/>
  <ellipse cx="1700" cy="780" rx="280" ry="140" fill="url(#blob3)" opacity="0.7"/>
  <!-- Wavy shape top -->
  <path d="M0 190 Q500 80 1200 200 Q1700 320 1920 120 L1920 0 L0 0 Z" fill="url(#wave1)" />
  <!-- Wavy shape bottom -->
  <path d="M0 980 Q650 1100 1920 950 L1920 1080 L0 1080 Z" fill="url(#wave1)" />
  <!-- Funky dots for extra pop -->
  <g opacity="0.14">
    <circle cx="500" cy="240" r="34" fill="#fff"/>
    <circle cx="1420" cy="980" r="24" fill="#fff"/>
    <circle cx="1700" cy="420" r="18" fill="#fff"/>
    <circle cx="820" cy="820" r="16" fill="#fff"/>
    <circle cx="200" cy="760" r="12" fill="#fff"/>
    <circle cx="1280" cy="360" r="22" fill="#fff"/>
  </g>
</svg>
